<?xml version="1.0" standalone="no"?>
<!DOCTYPE svg PUBLIC "-//W3C//DTD SVG 20010904//EN"
 "http://www.w3.org/TR/2001/REC-SVG-20010904/DTD/svg10.dtd">
<svg version="1.0" xmlns="http://www.w3.org/2000/svg"
 width="412.000000pt" height="412.000000pt" viewBox="0 0 412.000000 412.000000"
 preserveAspectRatio="xMidYMid meet">
<metadata>
Created by potrace 1.14, written by Peter Selinger 2001-2017
</metadata>
<g transform="translate(0.000000,412.000000) scale(0.100000,-0.100000)"
fill="#000000" stroke="none">
<path d="M1979 4034 c-83 -83 -73 -79 -244 -89 -60 -4 -126 -8 -145 -10 -19
-1 -45 -3 -57 -4 -16 -1 -186 -164 -548 -526 l-526 -526 188 5 187 5 -399
-399 -399 -399 582 -582 c320 -320 582 -584 582 -588 -1 -10 -86 -82 -145
-122 l-53 -36 379 -379 380 -379 65 69 c37 38 73 80 81 93 8 13 19 23 23 23 5
0 36 -27 69 -61 l61 -61 1012 1012 1012 1011 -423 423 c-329 329 -419 425
-405 428 11 3 86 6 169 7 82 1 151 4 153 6 2 2 -228 235 -511 518 l-514 514
-84 -3 c-46 -2 -125 -6 -176 -8 l-92 -4 -66 69 c-37 38 -70 69 -74 69 -3 0
-40 -34 -82 -76z m1146 -1518 c228 -229 415 -419 415 -424 0 -4 -300 -306
-666 -672 -366 -366 -664 -656 -661 -645 16 58 30 112 33 130 2 11 10 54 19
95 16 81 18 97 34 210 18 131 21 153 26 230 3 41 7 100 10 130 11 131 18 348
30 830 5 198 15 485 18 505 3 18 25 20 177 23 l149 3 416 -415z m-1346 292
c-9 -57 -20 -125 -23 -153 -11 -76 -16 -115 -26 -175 -5 -30 -12 -80 -15 -110
-4 -30 -8 -57 -10 -60 -1 -3 -6 -34 -10 -70 -3 -36 -8 -76 -10 -90 -2 -14 -6
-47 -9 -75 -23 -189 -24 -192 -48 -310 -33 -162 -133 -438 -187 -515 -9 -12
-89 64 -436 410 -234 234 -425 428 -425 432 0 5 179 187 397 405 370 370 400
398 438 403 22 3 117 6 211 8 l170 3 -17 -103z"/>
</g>
</svg>
