<svg width="21" height="20" viewBox="0 0 21 20" fill="none" xmlns="http://www.w3.org/2000/svg">
<g clip-path="url(#clip0_2805_28)">
<path d="M20.605 10.2303C20.605 9.55056 20.5499 8.86711 20.4323 8.19836H11V12.0492H16.4015C16.1773 13.2911 15.4571 14.3898 14.4026 15.0879V17.5866H17.6251C19.5174 15.8449 20.605 13.2728 20.605 10.2303Z" fill="#3F83F8"/>
<path d="M10.9988 20.0006C13.6958 20.0006 15.9703 19.1151 17.6275 17.5865L14.405 15.0879C13.5084 15.6979 12.351 16.0433 11.0025 16.0433C8.39357 16.0433 6.18156 14.2832 5.38788 11.9169H2.0625V14.4927C3.7601 17.8695 7.21775 20.0006 10.9988 20.0006Z" fill="#34A853"/>
<path d="M5.38544 11.9169C4.96656 10.6749 4.96656 9.33008 5.38544 8.08811V5.51233H2.06375C0.645415 8.33798 0.645415 11.667 2.06375 14.4927L5.38544 11.9169Z" fill="#FBBC04"/>
<path d="M10.9988 3.95805C12.4245 3.936 13.8024 4.47247 14.8349 5.45722L17.6899 2.60218C15.8821 0.904587 13.4827 -0.0287217 10.9988 0.00067389C7.21775 0.00067389 3.7601 2.13185 2.0625 5.51234L5.3842 8.08813C6.17421 5.71811 8.3899 3.95805 10.9988 3.95805Z" fill="#EA4335"/>
</g>
<defs>
<clipPath id="clip0_2805_28">
<rect width="21" height="20" fill="white"/>
</clipPath>
</defs>
</svg>
