<svg width="406" height="412" viewBox="0 0 406 412" fill="none" xmlns="http://www.w3.org/2000/svg">
<path fill-rule="evenodd" clip-rule="evenodd" d="M203 0.355225L405.445 202.8L203 405.245L0.555176 202.8L203 0.355225ZM203 54.0384L54.2384 202.8L203 351.562L351.762 202.8L203 54.0384Z" fill="#1E003D"/>
<mask id="mask0_2801_368" style="mask-type:luminance" maskUnits="userSpaceOnUse" x="96" y="71" width="143" height="341">
<path d="M184.394 71.1559C176.659 118.763 167.483 177.811 163.421 213.808C157.153 269.379 131.22 315.832 96.9905 335.669L172.969 411.646C185.286 399.677 196.014 385.73 204.358 369.959C243.703 295.591 226.599 171.161 238.905 85.2922L184.394 71.1559Z" fill="white"/>
</mask>
<g mask="url(#mask0_2801_368)">
<path d="M96.9905 411.645H243.704V71.1521H96.9905V411.645Z" fill="url(#paint0_linear_2801_368)"/>
</g>
<path opacity="0.3" d="M184.402 71.152C180.728 93.7056 176.747 118.806 173.138 142.832L234.335 141.411C235.128 121.61 236.421 102.666 238.904 85.296L184.402 71.152Z" fill="#1E003D"/>
<path opacity="0.3" d="M135.634 374.307C152.926 356.899 164.741 335.344 173.291 311.728C175.685 305.123 177.822 298.352 179.755 291.466C179.755 291.466 180.664 287.254 182.059 280.573C185.835 262.435 193.182 226.173 195.691 206.755C195.896 205.168 196.075 203.709 196.203 202.365C196.545 199.31 196.873 196.246 197.189 193.174C198.93 176.227 200.299 159.101 202.04 142.154L173.138 142.832C170.283 161.789 167.659 180.067 165.611 195.85C164.779 202.301 164.037 208.317 163.422 213.808C159.262 250.672 146.45 283.517 128.312 307.248C119.109 319.293 108.523 328.995 96.9905 335.677L135.634 374.307Z" fill="white"/>
<path opacity="0.3" d="M98.4113 337.085C105.387 332.118 112.709 325.462 120.427 316.63V316.618C113.221 324.387 105.362 330.826 96.9905 335.677L98.4113 337.085ZM135.634 374.307C150.738 359.101 161.669 340.733 169.886 320.586C169.272 322.032 157.47 349.309 133.931 372.592L135.634 374.307Z" fill="white"/>
<path opacity="0.3" d="M211.883 198.307C212.152 195.414 212.395 192.586 212.626 189.859C213.867 174.755 214.482 162.25 214.917 154.186C215.454 144.227 217.502 132.72 220.178 121.328C223.416 107.517 227.576 93.8593 231.07 83.2609L212.293 78.3969C211.102 83.1585 210.027 87.9841 209.054 92.8609C202.629 125.155 200.645 159.51 197.189 193.174C196.873 196.246 196.544 199.31 196.203 202.365C196.075 203.709 195.896 205.168 195.691 206.755C193.182 226.173 185.835 262.435 182.059 280.573C180.664 287.254 179.755 291.466 179.755 291.466C177.822 298.352 175.685 305.123 173.291 311.728C164.741 335.344 152.926 356.899 135.634 374.307L142.162 380.848C164.178 360.854 180.05 335.933 190.635 306.954C192.798 301.014 194.757 294.896 196.485 288.637C196.843 287.314 197.197 285.987 197.547 284.656C203.384 254.781 207.698 227.184 210.002 211.568C211.23 203.222 211.883 198.307 211.883 198.307Z" fill="#01052D"/>
<mask id="mask1_2801_368" style="mask-type:luminance" maskUnits="userSpaceOnUse" x="42" y="13" width="314" height="112">
<path d="M42.8796 124.037L355.861 116.779L252.628 13.5457C226.147 13.9604 189.331 16.0122 147.95 18.9665L42.8796 124.037Z" fill="white"/>
</mask>
<g mask="url(#mask1_2801_368)">
<path d="M42.8848 124.042H355.858V13.552H42.8848V124.042Z" fill="url(#paint1_linear_2801_368)"/>
</g>
<path opacity="0.3" d="M311.505 77.5904C243.499 66.3008 178.744 74.7104 88.3631 87.2032L78.3279 88.5856L88.8751 78.0384C125.419 74.928 162.245 71.7536 197.521 69.808C250.027 66.928 286.366 70.9088 311.505 77.5904Z" fill="#020C6A"/>
<path opacity="0.3" d="M197.522 69.808C162.245 71.7536 125.419 74.928 88.8752 78.0384L147.947 18.9664C189.33 16.0096 226.142 13.9616 252.626 13.5392L318.776 79.7024C316.459 78.9728 314.04 78.2688 311.506 77.5904C286.366 70.9088 250.027 66.928 197.522 69.808Z" fill="#00FFFF"/>
<path opacity="0.3" d="M259.845 20.7584C244.971 18.1984 226.962 18.0064 211.474 18.672C201.592 19.0944 176.453 21.104 143.045 23.8816L147.947 18.9664C189.33 16.0096 226.142 13.9616 252.626 13.5392L259.845 20.7584ZM197.534 69.8208C162.245 71.7536 125.419 74.928 88.8879 78.0384L91.7423 75.184C126.2 71.2544 164.306 67.0688 184.504 65.4048C224.542 62.1152 277.893 69.2832 288.248 49.1616L318.789 79.7024C316.472 78.9728 314.053 78.2688 311.506 77.6032C286.366 70.9216 250.027 66.928 197.534 69.8208Z" fill="white"/>
<defs>
<linearGradient id="paint0_linear_2801_368" x1="669.586" y1="232.006" x2="232.905" y2="985.344" gradientUnits="userSpaceOnUse">
<stop stop-color="#0000FF"/>
<stop offset="1" stop-color="#FF00FF"/>
</linearGradient>
<linearGradient id="paint1_linear_2801_368" x1="-128.291" y1="32.0527" x2="380.41" y2="1.50195" gradientUnits="userSpaceOnUse">
<stop stop-color="#0000FF"/>
<stop offset="1" stop-color="#00FFFF"/>
</linearGradient>
</defs>
</svg>
